<?xml version="1.0" encoding="utf-8"?>
<!-- Generator: Adobe Illustrator 25.1.0, SVG Export Plug-In . SVG Version: 6.00 Build 0)  -->
<svg version="1.1" id="Layer_1" xmlns="http://www.w3.org/2000/svg" xmlns:xlink="http://www.w3.org/1999/xlink" x="0px" y="0px"
	 viewBox="0 0 104.9 104.9" style="enable-background:new 0 0 104.9 104.9;" xml:space="preserve">
<style type="text/css">
	.st0{fill:#DA4F27;}
	.st1{fill:#FFFFFF;}
</style>
<circle class="st0" cx="52.9" cy="52.2" r="50.9"/>
<g>
	<path class="st1" d="M74.6,61.1H31.2c-0.7,0-1.3-0.6-1.3-1.3V29.3c0-0.7,0.6-1.3,1.3-1.3h43.3c0.7,0,1.3,0.6,1.3,1.3v30.6
		C75.8,60.6,75.3,61.1,74.6,61.1z M32.5,58.6h40.8v-28H32.5V58.6z"/>
	<path class="st1" d="M27.4,76.4c-0.6,0-1.3-0.2-1.8-0.5c-0.6-0.3-1.1-0.8-1.4-1.4c-0.3-0.6-0.5-1.2-0.5-1.9s0.2-1.3,0.5-1.9
		l6.1-10.2c0.3-0.6,0.8-1.1,1.4-1.4c0.6-0.3,1.2-0.5,1.9-0.5c0,0,0,0,0,0c0.7,0,1.3,0.6,1.3,1.3c0,0.7-0.6,1.3-1.3,1.3c0,0,0,0,0,0
		c-0.2,0-0.5,0.1-0.7,0.2c-0.2,0.1-0.4,0.3-0.5,0.5L26.3,72c-0.1,0.2-0.2,0.4-0.2,0.6c0,0.2,0.1,0.4,0.2,0.6s0.3,0.4,0.5,0.5
		c0.2,0.1,0.4,0.2,0.6,0.2h50.9c0.3,0,0.5,0,0.7-0.2c0.2-0.1,0.4-0.3,0.5-0.5c0.1-0.2,0.2-0.4,0.2-0.6c0-0.2-0.1-0.4-0.2-0.6
		l-6.1-10.2c-0.1-0.2-0.3-0.4-0.5-0.5c-0.2-0.1-0.4-0.2-0.7-0.2c0,0,0,0,0,0c-0.7,0-1.3-0.6-1.3-1.3c0-0.7,0.6-1.3,1.3-1.3
		c0,0,0,0,0,0c0.7,0,1.3,0.2,1.9,0.5c0.6,0.3,1.1,0.8,1.4,1.4l6.1,10.2c0.4,0.6,0.5,1.3,0.5,1.9c0,0.7-0.2,1.3-0.5,1.9
		c-0.3,0.6-0.8,1.1-1.4,1.4c-0.6,0.3-1.2,0.5-1.9,0.5L27.4,76.4C27.4,76.4,27.4,76.4,27.4,76.4z"/>
	<path class="st1" d="M59.3,71.3H46.5c-0.7,0-1.3-0.6-1.3-1.3s0.6-1.3,1.3-1.3h12.7c0.7,0,1.3,0.6,1.3,1.3S60,71.3,59.3,71.3z"/>
	<path class="st1" d="M51.6,46.9c-0.5,0-1-0.1-1.4-0.3l-11.1-4.4c-0.6-0.2-1-0.8-1-1.5c0-0.7,0.4-1.2,1-1.5l11.1-4.4l0,0
		c0.9-0.4,1.9-0.4,2.8,0l11.8,4.7c0.5,0.2,0.8,0.7,0.8,1.2c0,0.5-0.3,1-0.8,1.2L53,46.6C52.6,46.8,52.1,46.9,51.6,46.9z M42.3,40.7
		l8.8,3.5c0.3,0.1,0.6,0.1,0.9,0l8.8-3.5l-8.8-3.5c-0.3-0.1-0.6-0.1-0.9,0L42.3,40.7z"/>
	<path class="st1" d="M52.5,54.8c-0.3,0-0.6,0-0.9,0c-0.7,0.1-1.5,0-2.2,0c-0.8-0.1-1.5-0.3-2.3-0.5c-0.7-0.2-1.5-0.6-2.1-1
		c-0.7-0.4-1.3-0.9-1.9-1.4c-0.3-0.2-0.4-0.6-0.4-0.9v-3.8c0-0.7,0.6-1.3,1.3-1.3c0.7,0,1.3,0.6,1.3,1.3v3.2c0.3,0.3,0.7,0.5,1,0.7
		c0.5,0.3,1.1,0.6,1.7,0.7c0.6,0.2,1.2,0.3,1.8,0.4c0.6,0.1,1.2,0.1,1.8,0c0.1,0,0.1,0,0.2,0c0.6,0.1,1.2,0,1.8,0
		c0.6-0.1,1.2-0.2,1.8-0.4c0.6-0.2,1.1-0.4,1.6-0.7c0.4-0.2,0.7-0.4,1-0.7v-3.2c0-0.7,0.6-1.3,1.3-1.3c0.7,0,1.3,0.6,1.3,1.3v3.8
		c0,0.4-0.2,0.7-0.4,0.9c-0.6,0.5-1.2,1-1.9,1.4c-0.7,0.4-1.4,0.7-2.1,1c-0.7,0.2-1.5,0.4-2.3,0.5C53.4,54.8,52.9,54.8,52.5,54.8z"
		/>
	<path class="st1" d="M64.4,54.8c-0.7,0-1.3-0.6-1.3-1.3V40.7c0-0.7,0.6-1.3,1.3-1.3c0.7,0,1.3,0.6,1.3,1.3v12.7
		C65.6,54.2,65.1,54.8,64.4,54.8z"/>
</g>
</svg>
