<?xml version="1.0" encoding="utf-8"?>
<!-- Generator: Adobe Illustrator 24.3.0, SVG Export Plug-In . SVG Version: 6.00 Build 0)  -->
<svg version="1.1" id="Layer_1" xmlns="http://www.w3.org/2000/svg" xmlns:xlink="http://www.w3.org/1999/xlink" x="0px" y="0px"
	 viewBox="0 0 654.3 221.5" style="enable-background:new 0 0 654.3 221.5;" xml:space="preserve">
<style type="text/css">
	.st0{fill:#E8E0CC;}
</style>
<g>
	<path class="st0" d="M138.2,160.4c3,0,4.2-2.8,4.2-9.1v-9.2c0-6.4-1.2-9.1-4.2-9.1h-2.5c-1,0-1.7,0.7-1.7,1.7v24.2
		c0,1,0.7,1.7,1.7,1.7h2.5V160.4z M122.5,202.7v-79.2c0-1,0.6-1.6,1.6-1.6h14.1c9.2,0,15.7,6.8,15.7,17.5v14.5
		c0,5.8-1.8,10-4.8,13.2c-0.4,0.5-0.8,1.1-0.7,2.1l5.1,32.9c0.2,1.8-0.3,2.3-1.3,2.3h-8c-1,0-1.8-0.4-2-2.1l-4-29.3
		c-0.1-1-0.7-1.6-1.7-1.6h-0.9c-1,0-1.7,0.7-1.7,1.6v29.7c0,1-0.6,1.7-1.7,1.7h-8.3C123.2,204.4,122.5,203.7,122.5,202.7"/>
	<path class="st0" d="M161.1,123.5c0-1,0.6-1.6,1.6-1.6h19.9c1,0,1.6,0.7,1.6,1.6v7c0,1-0.7,1.7-1.6,1.7h-8.4c-1,0-1.7,0.7-1.7,1.6
		v22c0,1,0.7,1.7,1.7,1.7h8.4c1,0,1.6,0.7,1.6,1.6v7c0,1-0.7,1.6-1.6,1.6h-8.4c-1,0-1.7,0.7-1.7,1.7v22.9c0,1,0.7,1.6,1.7,1.6h8.4
		c1,0,1.6,0.7,1.6,1.7v7c0,1-0.7,1.7-1.6,1.7h-19.9c-1,0-1.6-0.7-1.6-1.7V123.5z"/>
	<path class="st0" d="M190.8,182.3c0-1,0.7-1.6,1.6-1.6h8.4c1,0,1.5,0.7,1.5,1.6v2.5c0,6.4,0.8,9.1,4.2,9.1c3.3,0,4.2-2.8,4.2-9.1
		v-2.5c0-5.5-3.1-8.7-8-15c-5.1-6.3-11.9-12.7-11.9-23.3v-5.2c0-10.7,6.1-17.5,15.7-17.5c9.6,0,15.8,6.8,15.8,17.5v5.2
		c0,1-0.7,1.6-1.6,1.6h-8.3c-1,0-1.7-0.7-1.7-1.6v-2.5c0-6.4-1-9.1-4.2-9.1c-3.3,0-4.2,2.8-4.2,9.1v2.5c0,5.5,3.2,8.7,8.3,15
		s11.8,12.7,11.8,23.3v5.2c0,10.7-6.2,17.5-15.8,17.5c-9.8,0-15.7-6.8-15.7-17.5L190.8,182.3L190.8,182.3z"/>
	<path class="st0" d="M244.7,193.9c3.5,0,4.2-2.7,4.2-9.1v-43.3c0-6.4-0.7-9.1-4.2-9.1s-4.2,2.8-4.2,9.1v43.3
		C240.6,191.2,241.2,193.9,244.7,193.9 M229,138.8c0-10.7,5.9-17.5,15.7-17.5s15.7,6.8,15.7,17.5v48.6c0,10.7-5.9,17.5-15.7,17.5
		s-15.7-6.8-15.7-17.5V138.8z"/>
	<path class="st0" d="M268.2,123.5c0-1,0.5-1.6,1.6-1.6h8.3c1,0,1.7,0.7,1.7,1.6v61.3c0,6.4,0.7,9.1,4.2,9.1s4.2-2.7,4.2-9.1v-61.3
		c0-1,0.5-1.6,1.6-1.6h8.3c1,0,1.7,0.7,1.7,1.6v63.9c0,10.7-5.9,17.5-15.7,17.5s-15.7-6.8-15.7-17.5v-63.9H268.2z"/>
	<path class="st0" d="M324.2,160.4c3,0,4.2-2.8,4.2-9.1v-9.2c0-6.4-1.2-9.1-4.2-9.1h-2.5c-1,0-1.7,0.7-1.7,1.7v24.2
		c0,1,0.7,1.7,1.7,1.7h2.5V160.4z M308.4,202.7v-79.2c0-1,0.6-1.6,1.6-1.6h14.1c9.2,0,15.7,6.8,15.7,17.5v14.5
		c0,5.8-1.8,10-4.8,13.2c-0.4,0.5-0.8,1.1-0.7,2.1l5.1,32.9c0.2,1.8-0.3,2.3-1.3,2.3h-8c-1,0-1.8-0.4-2-2.1l-4-29.3
		c-0.1-1-0.7-1.6-1.7-1.6h-0.9c-1,0-1.7,0.7-1.7,1.6v29.7c0,1-0.6,1.7-1.7,1.7h-8.3C309.1,204.4,308.4,203.7,308.4,202.7"/>
	<path class="st0" d="M346,138.8c0-10.7,5.9-17.5,15.7-17.5s15.7,6.8,15.7,17.5v9c0,1-0.7,1.6-1.7,1.6h-8.3c-1,0-1.7-0.7-1.7-1.6
		v-6.4c0-6.4-0.8-9.1-4.2-9.1c-3.5,0-4.2,2.8-4.2,9.1v43.3c0,6.4,0.7,9.1,4.2,9.1c3.4,0,4.2-2.7,4.2-9.1v-6.4c0-1,0.7-1.7,1.7-1.7
		h8.3c1,0,1.7,0.7,1.7,1.7v9c0,10.7-5.9,17.5-15.7,17.5S346,198,346,187.3V138.8z"/>
	<path class="st0" d="M385.5,123.5c0-1,0.6-1.6,1.6-1.6H407c1,0,1.6,0.7,1.6,1.6v7c0,1-0.7,1.7-1.6,1.7h-8.4c-1,0-1.7,0.7-1.7,1.6
		v22c0,1,0.7,1.7,1.7,1.7h8.4c1,0,1.6,0.7,1.6,1.6v7c0,1-0.7,1.6-1.6,1.6h-8.4c-1,0-1.7,0.7-1.7,1.7v22.9c0,1,0.7,1.6,1.7,1.6h8.4
		c1,0,1.6,0.7,1.6,1.7v7c0,1-0.7,1.7-1.6,1.7h-19.9c-1,0-1.6-0.7-1.6-1.7V123.5z"/>
</g>
<g>
	<path class="st0" d="M7.9,92.8V13.6c0-1,0.6-1.7,1.5-1.7h8.7c1,0,1.4,0.7,1.8,1.7l11.2,37.2c0.2,0.8,1.1,0.8,1.3,0l11.2-37.2
		c0.3-1,0.8-1.7,1.8-1.7H54c1,0,1.6,0.7,1.6,1.7v79.2c0,1-0.7,1.7-1.6,1.7h-8.3c-1,0-1.6-0.7-1.6-1.7V52.2c0-0.7-0.9-0.9-1.1-0.1
		l-5.3,19.8c-0.2,1-1,1.7-1.8,1.7h-8.4c-0.8,0-1.5-0.7-1.8-1.7l-5.3-19.8c-0.2-0.8-1.1-0.6-1.1,0.1v40.6c0,1-0.7,1.7-1.7,1.7H9.3
		C8.5,94.4,7.9,93.7,7.9,92.8"/>
	<path class="st0" d="M81,73.2c0.5,0,0.8-0.4,0.7-1.2l-2.8-27.9c-0.1-0.7-0.9-0.7-1,0L75.2,72c-0.1,0.8,0.1,1.2,0.7,1.2H81z
		 M61.9,92.5l10.7-78.7c0.2-1.7,0.9-2,1.9-2h8c1,0,1.7,0.3,1.9,2l10.7,78.7c0.2,1.3-0.7,1.9-1.4,1.9H86c-0.7,0-1.4-0.3-1.5-1.7
		l-0.8-7.6c-0.1-1-0.3-1.7-1.1-1.7h-8c-0.8,0-1,0.7-1.1,1.7l-0.8,7.6c-0.1,1.3-0.9,1.7-1.5,1.7h-7.7C62.6,94.4,61.7,93.9,61.9,92.5"
		/>
	<path class="st0" d="M101.3,92.8V13.6c0-1,0.7-1.7,1.6-1.7h7.7c0.9,0,1.5,0.2,1.9,1.4L123.8,51c0.2,0.8,1.1,0.7,1.1-0.1V13.5
		c0-1,0.7-1.7,1.6-1.7h8.3c1,0,1.7,0.7,1.7,1.7v79.2c0,1-0.7,1.7-1.7,1.7h-8c-0.7,0-1.2-0.2-1.5-1.3L114,55.3
		c-0.2-0.8-1.1-0.7-1.1,0.1v37.4c0,1-0.7,1.7-1.7,1.7h-8.3C101.9,94.4,101.3,93.7,101.3,92.8"/>
	<path class="st0" d="M146.4,92.8V13.6c0-1,0.7-1.7,1.6-1.7h7.7c0.9,0,1.5,0.2,1.9,1.4L168.9,51c0.2,0.8,1.1,0.7,1.1-0.1V13.5
		c0-1,0.7-1.7,1.7-1.7h8.2c1,0,1.7,0.7,1.7,1.7v79.2c0,1-0.7,1.7-1.7,1.7h-8c-0.7,0-1.2-0.2-1.5-1.3l-11.3-37.8
		c-0.2-0.8-1.1-0.7-1.1,0.1v37.4c0,1-0.7,1.7-1.7,1.7H148C147,94.4,146.4,93.7,146.4,92.8"/>
	<path class="st0" d="M207,73.2c0.5,0,0.8-0.4,0.7-1.2L205,44.1c-0.1-0.7-0.9-0.7-1,0L201.2,72c-0.1,0.8,0.1,1.2,0.7,1.2H207z
		 M187.9,92.5l10.7-78.7c0.2-1.7,0.9-2,1.9-2h8c1,0,1.7,0.3,1.9,2l10.7,78.7c0.2,1.3-0.7,1.9-1.4,1.9H212c-0.7,0-1.4-0.3-1.5-1.7
		l-0.8-7.6c-0.1-1-0.3-1.7-1.1-1.7h-8c-0.8,0-1,0.7-1.1,1.7l-0.8,7.6c-0.1,1.3-0.9,1.7-1.5,1.7h-7.7
		C188.5,94.4,187.6,93.9,187.9,92.5"/>
	<path class="st0" d="M227.3,92.8V13.6c0-1,0.6-1.7,1.6-1.7h8.3c1,0,1.7,0.7,1.7,1.7v32c0,1,0.7,1.6,1.7,1.6h6.4
		c1,0,1.8-0.7,1.8-1.6v-32c0-1,0.5-1.7,1.7-1.7h8.2c1,0,1.7,0.7,1.7,1.7v79.2c0,1-0.6,1.7-1.7,1.7h-8.2c-1,0-1.7-0.7-1.7-1.7V59.9
		c0-1-0.8-1.7-1.8-1.7h-6.4c-1,0-1.7,0.7-1.7,1.7v32.9c0,1-0.6,1.7-1.7,1.7h-8.3C227.9,94.4,227.3,93.7,227.3,92.8"/>
	<path class="st0" d="M284.7,84c3.5,0,4.2-2.7,4.2-9.1V31.6c0-6.4-0.7-9.1-4.2-9.1s-4.2,2.8-4.2,9.1v43.3
		C280.5,81.2,281.2,84,284.7,84 M269,28.8c0-10.7,5.9-17.5,15.7-17.5s15.7,6.8,15.7,17.5v48.6c0,10.7-5.9,17.5-15.7,17.5
		S269,88.1,269,77.4V28.8z"/>
	<path class="st0" d="M308.1,13.5c0-1,0.5-1.6,1.6-1.6h8.3c1,0,1.7,0.7,1.7,1.6v61.3c0,6.4,0.7,9.1,4.2,9.1s4.2-2.7,4.2-9.1V13.5
		c0-1,0.5-1.6,1.7-1.6h8.3c1,0,1.7,0.7,1.7,1.6v63.9c0,10.7-5.9,17.5-15.7,17.5s-15.7-6.8-15.7-17.5V13.5H308.1z"/>
	<path class="st0" d="M346.2,72.3c0-1,0.7-1.6,1.6-1.6h8.4c1,0,1.5,0.7,1.5,1.6v2.5c0,6.4,0.8,9.1,4.2,9.1c3.3,0,4.2-2.8,4.2-9.1
		v-2.5c0-5.5-3.1-8.7-8-15C353,51,346.2,44.6,346.2,34v-5.2c0-10.7,6.1-17.5,15.7-17.5c9.6,0,15.8,6.8,15.8,17.5V34
		c0,1-0.7,1.7-1.7,1.7h-8.4c-1,0-1.7-0.7-1.7-1.7v-2.5c0-6.4-1-9.1-4.2-9.1c-3.3,0-4.2,2.8-4.2,9.1V34c0,5.5,3.2,8.7,8.3,15
		s11.8,12.7,11.8,23.3v5.2c0,10.7-6.2,17.5-15.8,17.5c-9.8,0-15.7-6.8-15.7-17.5v-5.2H346.2z"/>
	<path class="st0" d="M385.5,13.5c0-1,0.6-1.6,1.6-1.6H407c1,0,1.6,0.7,1.6,1.6v7c0,1-0.7,1.7-1.6,1.7h-8.4c-1,0-1.7,0.7-1.7,1.7v22
		c0,1,0.7,1.7,1.7,1.7h8.4c1,0,1.6,0.7,1.6,1.6v7c0,1-0.7,1.6-1.6,1.6h-8.4c-1,0-1.7,0.7-1.7,1.7v22.9c0,1,0.7,1.6,1.7,1.6h8.4
		c1,0,1.6,0.7,1.6,1.6v7c0,1-0.7,1.7-1.6,1.7h-19.9c-1,0-1.6-0.7-1.6-1.7V13.5z"/>
</g>
<g>
	<path class="st0" d="M595.6,145.8h0.7h0.9v-45.3l0,0l40.7-20l3.3-1.6l-5.2-3.2l0,0l-1.1-0.7l-1.9-1.2l0,0L527.8,10.6l0,0l0,0l0,0
		l0,0L484.3,32v45.3v2.9l102.9,60.5L595.6,145.8z M491.7,34l36-17.7l103.4,62.1L595,96.1L491.7,34z M592.4,138.2l-103-60.6V38.4
		l103,61.9V138.2z"/>
	<path class="st0" d="M542.5,207.9c51.7,0,93.8-42.1,93.8-93.8V15.7H448.7v190.5L542.5,207.9z M443.6,211.3V114V10.6h197.8V114
		c0,54.5-44.4,98.9-98.9,98.9L443.6,211.3z"/>
	<path class="st0" d="M554.2,161.7L450.9,99.6l36-17.7l104.7,61.5L554.2,161.7z M551.6,206.4h-0.2l0.2-0.3V206.4z M592.4,138.2
		L487.1,76.3l0,0l0,0l0,0l0,0l-43.5,21.4v10.1l4.9,2.2v-6.1l103,61.9v37.9l-103.6-60.8v5.7l98.6,57.9l8.2,4.9h0.7h0.9v-45.3l0,0
		l40.8-20.2L592.4,138.2z"/>
</g>
</svg>
