<?xml version="1.0" encoding="utf-8"?>
<!-- Generator: Adobe Illustrator 25.1.0, SVG Export Plug-In . SVG Version: 6.00 Build 0)  -->
<svg version="1.1" id="Layer_1" xmlns="http://www.w3.org/2000/svg" xmlns:xlink="http://www.w3.org/1999/xlink" x="0px" y="0px"
	 viewBox="0 0 104.9 104.9" style="enable-background:new 0 0 104.9 104.9;" xml:space="preserve">
<style type="text/css">
	.st0{fill:#0E395A;}
	.st1{fill:#FFFFFF;}
</style>
<circle class="st0" cx="52.6" cy="52.3" r="50.9"/>
<g>
	<path class="st1" d="M52.6,85c-0.7,0-1.4-0.1-2-0.2c-0.7-0.1-1.3-0.3-2-0.6c-0.6-0.3-1.2-0.6-1.8-1c-0.6-0.4-1.1-0.8-1.6-1.3
		c-0.5-0.5-0.9-1-1.3-1.6c-0.4-0.6-0.7-1.2-1-1.8c-0.3-0.6-0.5-1.3-0.6-2c-0.1-0.7-0.2-1.4-0.2-2V68c0-0.8,0.7-1.5,1.5-1.5
		s1.5,0.7,1.5,1.5v6.5c0,0.5,0,1,0.1,1.5c0.1,0.5,0.2,0.9,0.4,1.4c0.2,0.4,0.4,0.9,0.7,1.3c0.3,0.4,0.6,0.8,0.9,1.1
		c0.3,0.3,0.7,0.7,1.1,0.9c0.4,0.3,0.8,0.5,1.3,0.7c0.4,0.2,0.9,0.3,1.4,0.4c0.9,0.2,1.9,0.2,2.9,0c0.5-0.1,0.9-0.2,1.4-0.4
		c0.4-0.2,0.9-0.4,1.3-0.7c0.4-0.3,0.8-0.6,1.1-0.9c0.3-0.3,0.7-0.7,0.9-1.1c0.3-0.4,0.5-0.8,0.7-1.3c0.2-0.4,0.3-0.9,0.4-1.4
		c0.1-0.5,0.1-1,0.1-1.4V68c0-0.8,0.7-1.5,1.5-1.5c0.8,0,1.5,0.7,1.5,1.5v6.5c0,0.7-0.1,1.4-0.2,2c-0.1,0.7-0.3,1.3-0.6,2
		c-0.3,0.6-0.6,1.2-1,1.8c-0.4,0.6-0.8,1.1-1.3,1.6c-0.5,0.5-1,0.9-1.6,1.3c-0.6,0.4-1.2,0.7-1.8,1c-0.6,0.3-1.3,0.5-2,0.6
		C53.9,84.9,53.2,85,52.6,85z"/>
	<path class="st1" d="M52.6,88c-0.8,0-1.5-0.7-1.5-1.5v-3c0-0.8,0.7-1.5,1.5-1.5c0.8,0,1.5,0.7,1.5,1.5v3C54,87.3,53.4,88,52.6,88z"
		/>
	<path class="st1" d="M55.5,71.4c-0.8,0-1.5-0.7-1.5-1.5V58.2h-3v11.7c0,0.8-0.7,1.5-1.5,1.5c-0.8,0-1.5-0.7-1.5-1.5V58.2h-3
		c-0.4,0-0.8,0-1.2-0.1c-0.4-0.1-0.8-0.2-1.1-0.3c-0.4-0.1-0.7-0.3-1-0.5c-0.3-0.2-0.6-0.5-0.9-0.7c-0.3-0.3-0.5-0.6-0.7-0.9
		c-0.2-0.3-0.4-0.7-0.5-1c-0.1-0.4-0.3-0.7-0.3-1.1c-0.1-0.4-0.1-0.8-0.1-1.2c0-0.4,0-0.8,0.1-1.2c0.1-0.4,0.2-0.8,0.3-1.1
		c0.1-0.4,0.3-0.7,0.5-1c0.2-0.3,0.5-0.6,0.7-0.9c0.3-0.3,0.6-0.5,0.9-0.7c0.3-0.2,0.7-0.4,1-0.5c0.4-0.1,0.7-0.3,1.1-0.3
		c0.8-0.2,1.6-0.2,2.3,0c0.4,0.1,0.8,0.2,1.1,0.3c0.4,0.1,0.7,0.3,1,0.5c0.3,0.2,0.6,0.5,0.9,0.7c0.3,0.3,0.5,0.6,0.7,0.9
		c0.2,0.3,0.4,0.7,0.5,1c0.1,0.4,0.3,0.7,0.3,1.1c0.1,0.4,0.1,0.8,0.1,1.2v3h3v-3c0-0.4,0-0.8,0.1-1.2c0.1-0.4,0.2-0.8,0.3-1.1
		c0.1-0.4,0.3-0.7,0.6-1c0.2-0.3,0.5-0.6,0.7-0.9c0.3-0.3,0.6-0.5,0.9-0.7c0.3-0.2,0.7-0.4,1-0.5c0.4-0.1,0.7-0.3,1.1-0.3
		c0.8-0.2,1.6-0.2,2.3,0c0.4,0.1,0.8,0.2,1.1,0.3c0.4,0.1,0.7,0.3,1,0.6c0.3,0.2,0.6,0.5,0.9,0.7c0.3,0.3,0.5,0.6,0.7,0.9
		c0.2,0.3,0.4,0.7,0.6,1c0.1,0.4,0.3,0.7,0.3,1.1c0.1,0.4,0.1,0.8,0.1,1.2c0,0.4,0,0.8-0.1,1.2c-0.1,0.4-0.2,0.8-0.3,1.1
		c-0.1,0.4-0.3,0.7-0.6,1c-0.2,0.3-0.5,0.6-0.7,0.9c-0.3,0.3-0.6,0.5-0.9,0.7c-0.3,0.2-0.7,0.4-1,0.5c-0.4,0.1-0.7,0.3-1.1,0.3
		c-0.4,0.1-0.8,0.1-1.2,0.1h-3v11.7C57,70.7,56.4,71.4,55.5,71.4z M57,55.3h3c0.2,0,0.4,0,0.6-0.1c0.2,0,0.4-0.1,0.6-0.2
		c0.2-0.1,0.4-0.2,0.5-0.3c0.2-0.1,0.3-0.2,0.5-0.4c0.1-0.1,0.3-0.3,0.4-0.5c0.1-0.2,0.2-0.3,0.3-0.5c0.1-0.2,0.1-0.4,0.2-0.6
		c0-0.2,0.1-0.4,0.1-0.6c0-0.2,0-0.4-0.1-0.6c0-0.2-0.1-0.4-0.2-0.6c-0.1-0.2-0.2-0.4-0.3-0.5c-0.1-0.2-0.2-0.3-0.4-0.5
		c-0.1-0.1-0.3-0.3-0.5-0.4c-0.2-0.1-0.3-0.2-0.5-0.3c-0.2-0.1-0.4-0.1-0.6-0.2c-0.4-0.1-0.8-0.1-1.2,0c-0.2,0-0.4,0.1-0.6,0.2
		c-0.2,0.1-0.4,0.2-0.5,0.3c-0.2,0.1-0.3,0.2-0.5,0.4c-0.1,0.1-0.3,0.3-0.4,0.4c-0.1,0.2-0.2,0.3-0.3,0.5c-0.1,0.2-0.1,0.4-0.2,0.6
		c0,0.2-0.1,0.4-0.1,0.6V55.3z M45.1,49.3c-0.2,0-0.4,0-0.6,0.1c-0.2,0-0.4,0.1-0.6,0.2c-0.2,0.1-0.4,0.2-0.5,0.3
		c-0.2,0.1-0.3,0.2-0.4,0.4c-0.1,0.1-0.3,0.3-0.4,0.4c-0.1,0.2-0.2,0.3-0.3,0.5c-0.1,0.2-0.1,0.4-0.2,0.6c0,0.2-0.1,0.4-0.1,0.6
		c0,0.2,0,0.4,0.1,0.6c0,0.2,0.1,0.4,0.2,0.6c0.1,0.2,0.2,0.4,0.3,0.5c0.1,0.2,0.2,0.3,0.4,0.5c0.1,0.1,0.3,0.3,0.4,0.4
		c0.2,0.1,0.3,0.2,0.5,0.3c0.2,0.1,0.4,0.1,0.6,0.2c0.2,0,0.4,0.1,0.6,0.1h3v-3c0-0.2,0-0.4-0.1-0.6s-0.1-0.4-0.2-0.6
		c-0.1-0.2-0.2-0.4-0.3-0.5c-0.1-0.2-0.2-0.3-0.4-0.4c-0.1-0.1-0.3-0.3-0.4-0.4c-0.2-0.1-0.3-0.2-0.5-0.3c-0.2-0.1-0.4-0.1-0.6-0.2
		C45.5,49.3,45.3,49.3,45.1,49.3z"/>
	<path class="st1" d="M61.4,77.6H43.8c-0.8,0-1.5-0.7-1.5-1.5s0.7-1.5,1.5-1.5h17.6c0.8,0,1.5,0.7,1.5,1.5S62.2,77.6,61.4,77.6z"/>
	<path class="st1" d="M52.6,71.6c-0.7,0-1.5,0-2.2-0.1c-0.7-0.1-1.4-0.2-2.2-0.3c-0.7-0.1-1.4-0.3-2.1-0.5c-0.7-0.2-1.4-0.5-2.1-0.7
		c-0.7-0.3-1.3-0.6-2-0.9c-0.6-0.3-1.3-0.7-1.9-1.1c-0.6-0.4-1.2-0.8-1.8-1.3c-0.6-0.5-1.1-1-1.6-1.5c-0.5-0.5-1-1.1-1.5-1.6
		c-0.5-0.6-0.9-1.2-1.3-1.8c-0.4-0.6-0.8-1.2-1.1-1.9c-0.3-0.6-0.7-1.3-0.9-2c-0.3-0.7-0.5-1.4-0.7-2.1c-0.2-0.7-0.4-1.4-0.5-2.1
		c-0.1-0.7-0.2-1.4-0.3-2.2c-0.1-0.7-0.1-1.5-0.1-2.2c0-0.7,0-1.5,0.1-2.2c0.1-0.7,0.2-1.5,0.3-2.2c0.1-0.7,0.3-1.4,0.5-2.1
		c0.2-0.7,0.5-1.4,0.7-2.1c0.3-0.7,0.6-1.3,0.9-2c0.3-0.6,0.7-1.3,1.1-1.9c0.4-0.6,0.8-1.2,1.3-1.8c0.5-0.6,1-1.1,1.5-1.6
		c0.5-0.5,1.1-1,1.6-1.5c0.6-0.5,1.2-0.9,1.8-1.3c0.6-0.4,1.2-0.8,1.9-1.1c0.6-0.3,1.3-0.7,2-0.9c0.7-0.3,1.4-0.5,2.1-0.7
		c0.7-0.2,1.4-0.4,2.1-0.5c0.7-0.1,1.4-0.2,2.2-0.3c1.4-0.1,2.9-0.1,4.4,0c0.7,0.1,1.5,0.2,2.2,0.3c0.7,0.1,1.4,0.3,2.1,0.5
		c0.7,0.2,1.4,0.5,2.1,0.7c0.7,0.3,1.3,0.6,2,0.9c0.6,0.3,1.3,0.7,1.9,1.1c0.6,0.4,1.2,0.8,1.8,1.3c0.6,0.5,1.1,1,1.6,1.5
		c0.5,0.5,1,1.1,1.5,1.6c0.5,0.6,0.9,1.2,1.3,1.8c0.4,0.6,0.8,1.2,1.1,1.9c0.3,0.6,0.7,1.3,0.9,2c0.3,0.7,0.5,1.4,0.7,2.1
		c0.2,0.7,0.4,1.4,0.5,2.1c0.1,0.7,0.2,1.4,0.3,2.2c0.1,0.7,0.1,1.5,0.1,2.2c0,0.7,0,1.5-0.1,2.2c-0.1,0.7-0.2,1.5-0.3,2.2
		c-0.1,0.7-0.3,1.4-0.5,2.1c-0.2,0.7-0.5,1.4-0.7,2.1c-0.3,0.7-0.6,1.3-0.9,2c-0.3,0.6-0.7,1.3-1.1,1.9c-0.4,0.6-0.8,1.2-1.3,1.8
		c-0.5,0.6-1,1.1-1.5,1.6s-1.1,1-1.6,1.5c-0.6,0.5-1.2,0.9-1.8,1.3c-0.6,0.4-1.2,0.8-1.9,1.1c-0.6,0.3-1.3,0.7-2,0.9
		c-0.7,0.3-1.4,0.5-2.1,0.7c-0.7,0.2-1.4,0.4-2.1,0.5c-0.7,0.1-1.4,0.3-2.2,0.3C54,71.6,53.3,71.6,52.6,71.6z M52.6,30
		c-0.6,0-1.3,0-1.9,0.1c-0.6,0.1-1.3,0.2-1.9,0.3c-0.6,0.1-1.2,0.3-1.8,0.5c-0.6,0.2-1.2,0.4-1.8,0.6c-0.6,0.2-1.2,0.5-1.7,0.8
		c-0.6,0.3-1.1,0.6-1.6,1c-0.5,0.4-1,0.7-1.5,1.1c-0.5,0.4-1,0.8-1.4,1.3c-0.4,0.4-0.9,0.9-1.3,1.4c-0.4,0.5-0.8,1-1.1,1.5
		c-0.4,0.5-0.7,1.1-1,1.6c-0.3,0.6-0.6,1.1-0.8,1.7c-0.2,0.6-0.5,1.2-0.6,1.8c-0.2,0.6-0.3,1.2-0.5,1.8c-0.1,0.6-0.2,1.2-0.3,1.9
		c-0.1,0.6-0.1,1.3-0.1,1.9c0,0.6,0,1.3,0.1,1.9c0.1,0.6,0.2,1.3,0.3,1.9c0.1,0.6,0.3,1.2,0.5,1.8c0.2,0.6,0.4,1.2,0.6,1.8
		c0.2,0.6,0.5,1.2,0.8,1.7c0.3,0.6,0.6,1.1,1,1.6c0.3,0.5,0.7,1,1.1,1.5c0.4,0.5,0.8,1,1.3,1.4c0.4,0.4,0.9,0.9,1.4,1.3
		c0.5,0.4,1,0.8,1.5,1.1c0.5,0.4,1.1,0.7,1.6,1c0.6,0.3,1.1,0.6,1.7,0.8c0.6,0.2,1.2,0.5,1.8,0.6c0.6,0.2,1.2,0.3,1.8,0.5
		c0.6,0.1,1.3,0.2,1.9,0.3c1.3,0.1,2.5,0.1,3.8,0c0.6-0.1,1.3-0.2,1.9-0.3c0.6-0.1,1.2-0.3,1.8-0.5c0.6-0.2,1.2-0.4,1.8-0.6
		c0.6-0.2,1.2-0.5,1.7-0.8c0.6-0.3,1.1-0.6,1.6-1c0.5-0.4,1-0.7,1.5-1.1c0.5-0.4,1-0.8,1.4-1.3c0.4-0.4,0.9-0.9,1.3-1.4
		c0.4-0.5,0.8-1,1.1-1.5c0.4-0.5,0.7-1.1,1-1.6c0.3-0.6,0.6-1.1,0.8-1.7c0.2-0.6,0.5-1.2,0.6-1.8c0.2-0.6,0.3-1.2,0.5-1.8
		c0.1-0.6,0.2-1.2,0.3-1.9c0.1-0.6,0.1-1.3,0.1-1.9c0-0.6,0-1.3-0.1-1.9c-0.1-0.6-0.2-1.3-0.3-1.9c-0.1-0.6-0.3-1.2-0.5-1.8
		c-0.2-0.6-0.4-1.2-0.6-1.8c-0.2-0.6-0.5-1.2-0.8-1.7c-0.3-0.6-0.6-1.1-1-1.6c-0.4-0.5-0.7-1-1.1-1.5s-0.8-1-1.3-1.4
		c-0.4-0.4-0.9-0.9-1.4-1.3c-0.5-0.4-1-0.8-1.5-1.1c-0.5-0.4-1.1-0.7-1.6-1c-0.6-0.3-1.1-0.6-1.7-0.8c-0.6-0.2-1.2-0.5-1.8-0.6
		c-0.6-0.2-1.2-0.3-1.8-0.5c-0.6-0.1-1.2-0.2-1.9-0.3C53.8,30,53.2,30,52.6,30z"/>
	<path class="st1" d="M52.6,22.6c-0.8,0-1.5-0.7-1.5-1.5v-3c0-0.8,0.7-1.5,1.5-1.5c0.8,0,1.5,0.7,1.5,1.5v3
		C54,21.9,53.4,22.6,52.6,22.6z"/>
	<path class="st1" d="M32.6,30.8c-0.4,0-0.8-0.1-1.1-0.4l-2.1-2.1c-0.6-0.6-0.6-1.5,0-2.1c0.6-0.6,1.5-0.6,2.1,0l2.1,2.1
		c0.6,0.6,0.6,1.5,0,2.1C33.4,30.7,33,30.8,32.6,30.8z"/>
	<path class="st1" d="M24.3,50.8h-3c-0.8,0-1.5-0.7-1.5-1.5c0-0.8,0.7-1.5,1.5-1.5h3c0.8,0,1.5,0.7,1.5,1.5
		C25.8,50.1,25.1,50.8,24.3,50.8z"/>
	<path class="st1" d="M30.5,72.9c-0.4,0-0.8-0.1-1.1-0.4c-0.6-0.6-0.6-1.5,0-2.1l2.1-2.1c0.6-0.6,1.5-0.6,2.1,0
		c0.6,0.6,0.6,1.5,0,2.1l-2.1,2.1C31.2,72.7,30.9,72.9,30.5,72.9z"/>
	<path class="st1" d="M74.6,72.9c-0.4,0-0.8-0.1-1.1-0.4l-2.1-2.1c-0.6-0.6-0.6-1.5,0-2.1c0.6-0.6,1.5-0.6,2.1,0l2.1,2.1
		c0.6,0.6,0.6,1.5,0,2.1C75.4,72.7,75,72.9,74.6,72.9z"/>
	<path class="st1" d="M83.8,50.8h-3c-0.8,0-1.5-0.7-1.5-1.5c0-0.8,0.7-1.5,1.5-1.5h3c0.8,0,1.5,0.7,1.5,1.5
		C85.3,50.1,84.6,50.8,83.8,50.8z"/>
	<path class="st1" d="M72.5,30.8c-0.4,0-0.8-0.1-1.1-0.4c-0.6-0.6-0.6-1.5,0-2.1l2.1-2.1c0.6-0.6,1.5-0.6,2.1,0
		c0.6,0.6,0.6,1.5,0,2.1l-2.1,2.1C73.3,30.7,72.9,30.8,72.5,30.8z"/>
</g>
</svg>
